<?xml version="1.0" standalone="no"?>
<!DOCTYPE svg PUBLIC "-//W3C//DTD SVG 20010904//EN"
 "http://www.w3.org/TR/2001/REC-SVG-20010904/DTD/svg10.dtd">
<svg version="1.0" xmlns="http://www.w3.org/2000/svg"
 width="512.000000pt" height="512.000000pt" viewBox="0 0 512.000000 512.000000"
 preserveAspectRatio="xMidYMid meet">
<g transform="translate(0.000000,512.000000) scale(0.100000,-0.100000)"
fill="#000000" stroke="none">
<path d="M0 2560 l0 -2560 2560 0 2560 0 0 2560 0 2560 -2560 0 -2560 0 0
-2560z m2876 2200 c42 -107 77 -196 78 -198 2 -2 47 -14 99 -27 216 -55 434
-149 618 -268 23 -15 34 -11 219 72 l195 88 171 -169 171 -170 -74 -166 c-41
-92 -81 -181 -88 -197 -11 -29 -10 -35 28 -95 102 -166 217 -447 250 -611 l13
-63 199 -77 200 -77 0 -242 0 -242 -200 -77 -199 -77 -13 -63 c-33 -162 -150
-448 -250 -611 -38 -60 -39 -66 -28 -95 7 -16 47 -105 88 -197 l74 -166 -171
-170 -171 -169 -195 88 c-185 83 -196 87 -219 72 -184 -118 -398 -211 -619
-268 -52 -14 -97 -27 -98 -28 -2 -1 -36 -90 -78 -197 l-74 -195 -242 0 -242 0
-76 200 -77 199 -64 13 c-165 34 -433 143 -600 245 l-74 45 -131 -57 c-72 -32
-160 -71 -196 -88 l-65 -30 -171 170 -171 170 74 167 c41 91 80 180 87 196 12
29 11 35 -27 95 -102 166 -217 447 -250 611 l-13 64 -199 77 -200 76 0 242 0
242 200 76 199 77 13 64 c33 164 148 445 250 611 38 60 39 66 28 95 -7 16 -47
105 -88 197 l-74 166 171 170 171 170 65 -30 c36 -17 124 -56 196 -88 l131
-57 64 39 c189 116 391 198 635 258 l41 10 66 172 c36 95 71 185 76 201 l11
27 241 -2 241 -3 74 -195z m-1971 -368 c-3 -3 1 -12 8 -21 10 -14 10 -14 -4
-4 -9 7 -18 11 -21 8 -2 -3 -5 1 -5 8 0 8 6 14 14 14 7 0 11 -3 8 -5z m2690
-1 c3 -5 2 -12 -3 -15 -5 -3 -9 1 -9 9 0 17 3 19 12 6z m-2770 -79 c-3 -3 1
-12 8 -21 10 -14 10 -14 -4 -4 -9 7 -18 11 -21 8 -2 -3 -5 1 -5 8 0 8 6 14 14
14 7 0 11 -3 8 -5z m-80 -80 c-3 -3 1 -12 8 -21 10 -14 10 -14 -4 -4 -9 7 -18
11 -21 8 -2 -3 -5 1 -5 8 0 8 6 14 14 14 7 0 11 -3 8 -5z m3729 -2498 c3 -8 2
-12 -4 -9 -6 3 -10 10 -10 16 0 14 7 11 14 -7z m-3723 -827 c-6 -8 -9 -16 -6
-19 3 -2 -1 -5 -8 -5 -8 0 -14 6 -14 13 0 7 4 11 8 8 4 -2 10 0 14 6 3 5 9 10
12 10 3 0 0 -6 -6 -13z m80 -80 c-6 -8 -9 -16 -6 -19 3 -2 -1 -5 -8 -5 -8 0
-14 6 -14 13 0 7 4 11 8 8 4 -2 10 0 14 6 3 5 9 10 12 10 3 0 0 -6 -6 -13z
m80 -80 c-6 -8 -9 -16 -6 -19 3 -2 -1 -5 -8 -5 -8 0 -14 6 -14 13 0 7 4 11 8
8 4 -2 10 0 14 6 3 5 9 10 12 10 3 0 0 -6 -6 -13z"/>
<path d="M2326 4898 c-17 -39 -55 -140 -86 -223 -50 -137 -60 -151 -97 -146
-7 1 -13 -3 -13 -10 0 -6 -7 -8 -16 -5 -9 4 -24 1 -32 -6 -13 -11 -14 -11 -8
1 6 9 2 9 -15 -2 -13 -9 -35 -18 -49 -20 -14 -3 -38 -10 -54 -16 -16 -7 -35
-10 -43 -7 -7 3 -13 1 -13 -4 0 -7 -21 -18 -50 -25 -44 -12 -69 -22 -107 -41
-24 -13 -51 -24 -59 -24 -8 0 -12 -4 -9 -10 5 -9 -24 -15 -48 -11 -5 1 -6 -3
-3 -8 7 -10 -32 -27 -49 -22 -5 1 -7 -1 -3 -4 4 -4 -3 -16 -15 -26 -15 -12
-17 -18 -8 -19 8 0 11 -3 8 -6 -4 -4 -12 -2 -20 4 -9 8 -24 3 -60 -19 l-46
-31 -61 23 c-33 13 -60 27 -60 31 0 5 -7 8 -15 8 -8 0 -32 9 -52 20 -21 11
-43 20 -50 20 -7 0 -13 4 -13 8 0 5 -12 14 -26 20 -14 7 -23 8 -20 3 4 -5 -17
2 -46 16 -47 22 -53 23 -64 9 -6 -9 -16 -16 -22 -16 -7 0 -9 -8 -5 -17 3 -10
3 -15 -2 -11 -4 4 -21 -6 -37 -22 -15 -17 -32 -30 -38 -30 -5 0 -7 -8 -3 -17
3 -10 3 -15 -2 -11 -4 4 -21 -6 -37 -22 -15 -17 -32 -30 -38 -30 -5 0 -7 -8
-3 -17 3 -10 3 -15 -2 -11 -4 4 -21 -6 -37 -22 -15 -17 -32 -30 -38 -30 -5 0
-6 -7 -3 -17 4 -11 3 -14 -5 -9 -23 14 -18 -34 8 -86 10 -20 16 -39 13 -42 -4
-3 -2 -6 4 -6 6 0 14 -12 17 -26 4 -15 24 -63 45 -108 21 -44 42 -92 46 -105
7 -23 -12 -101 -24 -101 -4 0 -15 -16 -25 -35 -11 -19 -23 -35 -28 -35 -4 0
-7 -3 -6 -7 4 -17 -14 -53 -24 -47 -6 4 -8 2 -4 -4 3 -6 -10 -40 -29 -75 -20
-36 -38 -73 -40 -84 -9 -37 -31 -91 -45 -109 -13 -16 -13 -17 0 -9 12 7 13 6
4 -6 -6 -8 -16 -34 -23 -59 -7 -25 -17 -56 -21 -70 -9 -26 -19 -68 -26 -109
-7 -33 -12 -41 -30 -41 -8 0 -14 -5 -14 -11 0 -5 -3 -8 -7 -6 -5 3 -35 -8 -68
-24 -33 -16 -68 -29 -78 -29 -10 0 -32 -8 -50 -17 -18 -9 -35 -16 -39 -15 -5
1 -8 -3 -8 -8 0 -6 -6 -10 -13 -8 -6 1 -31 -6 -54 -17 l-43 -19 0 -216 0 -216
33 -16 c42 -20 154 -64 187 -73 51 -15 162 -66 172 -80 4 -5 12 -32 18 -60 18
-80 52 -189 64 -204 9 -12 8 -13 -4 -6 -13 8 -13 7 0 -9 14 -17 36 -71 45
-108 2 -9 19 -47 39 -84 19 -37 32 -72 29 -77 -3 -6 -1 -7 5 -3 7 4 12 2 12
-3 0 -13 60 -114 73 -122 6 -4 7 -14 4 -24 -4 -9 -3 -13 3 -10 13 8 23 -38 15
-67 -4 -13 -23 -57 -42 -98 -56 -123 -63 -140 -63 -152 0 -6 -6 -19 -13 -27
-8 -9 -19 -31 -27 -48 l-12 -33 155 -156 156 -155 29 15 c16 8 40 17 53 20 13
2 55 20 92 39 37 20 80 40 95 46 15 6 47 19 72 30 l45 19 52 -29 c29 -16 58
-29 64 -29 16 0 39 -26 31 -35 -4 -5 -2 -5 4 -2 6 3 27 -5 47 -18 25 -18 37
-21 40 -12 3 7 6 5 6 -5 1 -10 7 -18 15 -18 8 0 36 -11 63 -24 51 -25 82 -38
98 -41 35 -5 64 -19 58 -28 -3 -5 -1 -7 5 -3 6 3 23 1 39 -5 15 -6 39 -13 53
-15 14 -3 36 -9 50 -14 14 -6 39 -12 55 -14 76 -9 83 -18 135 -161 31 -84 69
-184 86 -222 l14 -33 220 0 220 0 14 33 c39 91 116 299 116 313 0 17 49 66 59
59 5 -3 22 0 38 6 15 6 46 16 68 20 22 5 45 11 50 12 6 2 30 10 55 17 25 8 55
20 68 28 12 8 22 11 22 8 0 -4 14 0 30 9 17 9 30 14 30 11 0 -2 20 6 46 20 25
13 50 24 55 24 6 0 17 7 26 15 8 9 28 19 44 22 16 3 29 9 29 14 0 4 16 13 35
20 19 7 33 15 30 17 -2 3 20 17 51 33 l54 29 58 -26 c31 -15 89 -41 127 -59
39 -17 98 -44 133 -59 l64 -26 25 20 c14 11 20 20 14 20 -7 0 -10 4 -6 10 3 5
11 7 18 4 7 -2 23 10 36 28 13 18 37 44 53 56 15 13 35 37 43 53 9 17 21 26
29 23 9 -4 24 11 41 40 17 29 31 43 41 39 8 -3 14 1 14 10 0 20 -27 84 -39 91
-5 3 -12 18 -16 33 -3 16 -17 51 -29 78 -62 132 -76 167 -76 185 0 25 21 70
32 70 5 0 7 4 3 9 -3 5 -1 12 4 16 5 3 16 18 24 33 7 15 32 60 55 100 22 39
39 72 37 72 -3 0 3 15 13 33 10 17 24 52 32 77 7 25 20 52 27 61 7 9 11 18 7
21 -3 3 2 23 11 44 9 22 18 48 20 59 2 11 9 38 15 60 6 22 13 48 15 58 10 44
17 53 47 66 18 8 36 13 41 12 4 0 7 3 7 7 0 8 57 29 103 38 11 2 30 10 43 19
13 8 31 15 40 15 9 0 41 12 71 27 l53 27 0 218 0 217 -40 12 c-22 7 -37 16
-33 22 4 6 0 8 -10 4 -10 -3 -17 -2 -17 4 0 6 -6 9 -12 6 -7 -2 -33 7 -57 21
-25 15 -41 21 -37 14 7 -12 -59 12 -80 29 -6 5 -14 6 -17 2 -4 -3 -7 -1 -7 6
0 7 -4 10 -9 6 -5 -3 -12 -1 -16 5 -4 6 -11 8 -16 5 -5 -4 -9 -1 -9 5 0 6 -4
9 -9 6 -15 -10 -30 18 -41 75 -6 30 -16 65 -21 79 -5 14 -11 34 -13 45 -6 27
-64 192 -82 232 -8 17 -14 36 -14 42 0 6 -4 11 -8 11 -9 0 -36 59 -35 77 0 7
-2 11 -6 8 -4 -2 -20 20 -35 50 -15 30 -32 57 -37 61 -12 7 -39 72 -39 94 0
10 17 53 37 96 20 44 37 81 38 84 1 3 7 18 13 33 7 16 12 33 12 38 0 5 5 9 11
9 5 0 7 5 4 11 -4 5 0 18 8 27 14 17 24 42 31 79 2 10 -3 25 -12 33 -14 13
-15 12 -9 -3 3 -9 1 -19 -6 -23 -7 -4 -9 -4 -5 1 4 4 1 20 -7 36 -18 34 -71
92 -62 67 3 -10 1 -20 -6 -24 -7 -4 -9 -4 -5 1 11 11 -19 63 -47 81 -14 9 -22
21 -18 27 3 5 1 7 -5 3 -5 -3 -20 10 -32 29 -24 38 -30 41 -49 23 -11 -11 -11
-9 -2 10 9 17 9 22 0 22 -7 0 -17 7 -23 16 -11 14 -18 13 -68 -10 -31 -14 -60
-26 -64 -26 -4 0 -44 -17 -88 -39 -45 -21 -103 -49 -130 -61 l-48 -23 -53 29
c-30 15 -51 32 -49 36 3 4 -3 8 -14 8 -10 0 -28 9 -40 20 -12 11 -28 20 -36
20 -8 0 -22 7 -30 16 -9 8 -16 13 -16 10 0 -2 -29 10 -65 29 -36 18 -62 29
-59 24 3 -6 -9 -1 -27 10 -18 11 -36 18 -41 15 -5 -3 -16 0 -24 7 -9 7 -24 14
-34 16 -9 1 -30 8 -46 14 -16 7 -33 13 -39 15 -5 1 -30 8 -55 14 -25 7 -55 12
-67 12 -14 0 -20 4 -16 11 4 6 0 8 -11 4 -24 -9 -60 32 -75 85 -6 24 -18 59
-25 78 -8 19 -26 67 -41 105 -14 39 -33 85 -41 103 l-14 32 -220 0 -220 0 -14
-32z m474 -809 c25 -5 56 -12 70 -14 28 -4 36 -6 100 -24 25 -8 50 -14 55 -15
31 -6 96 -32 133 -54 24 -13 46 -22 49 -19 3 4 19 -3 34 -14 16 -11 29 -17 29
-12 1 4 10 -3 20 -16 11 -13 20 -20 20 -17 0 4 6 4 13 -1 12 -8 17 -9 38 -12
5 0 7 -5 4 -11 -3 -5 0 -10 8 -10 8 0 24 -8 36 -19 12 -10 37 -29 56 -42 19
-13 35 -27 35 -31 0 -5 7 -8 15 -8 8 0 15 -4 15 -10 0 -5 5 -10 11 -10 7 0 53
-42 103 -94 98 -100 102 -105 159 -181 20 -27 41 -55 45 -61 16 -18 36 -59 34
-66 -1 -5 2 -8 6 -8 7 0 33 -42 37 -60 0 -3 7 -16 15 -30 39 -68 116 -278 124
-340 3 -19 10 -51 16 -70 18 -56 25 -367 10 -497 -7 -62 -15 -111 -19 -109 -3
2 -7 -9 -8 -25 -4 -57 -101 -318 -131 -351 -8 -10 -12 -18 -8 -18 4 0 -2 -13
-13 -29 -12 -16 -21 -34 -21 -40 0 -7 -7 -14 -15 -17 -8 -4 -13 -10 -10 -14 3
-5 -2 -16 -11 -24 -8 -9 -12 -16 -7 -16 4 0 3 -4 -3 -8 -6 -4 -29 -33 -52 -64
-23 -31 -82 -98 -132 -150 -49 -51 -90 -95 -90 -98 0 -3 -5 -5 -10 -5 -10 0
-41 -22 -79 -56 -10 -8 -25 -18 -34 -22 -9 -3 -17 -11 -17 -17 0 -6 -4 -8 -10
-5 -5 3 -10 2 -10 -4 0 -6 -11 -13 -25 -17 -14 -3 -22 -10 -19 -15 5 -8 -3
-11 -22 -8 -4 0 -10 -3 -13 -8 -10 -13 -109 -63 -127 -63 -8 0 -12 -5 -9 -10
5 -9 -8 -12 -31 -9 -4 0 -10 -4 -13 -9 -5 -7 -104 -48 -129 -53 -4 -1 -11 -3
-17 -4 -5 -2 -21 -6 -35 -8 -14 -3 -36 -8 -50 -12 -14 -4 -34 -8 -45 -11 -11
-2 -42 -9 -70 -16 -29 -6 -130 -11 -245 -12 -190 0 -203 2 -360 39 -8 2 -28 6
-45 10 -67 15 -154 47 -165 60 -6 8 -17 12 -25 9 -7 -3 -16 0 -20 5 -3 6 -11
8 -17 5 -7 -5 -8 -2 -3 6 6 10 4 12 -8 7 -10 -4 -17 -1 -17 5 0 6 -3 8 -7 5
-3 -4 -18 3 -31 15 -14 13 -21 16 -17 8 5 -8 -4 -5 -19 8 -16 12 -33 19 -39
15 -6 -3 -7 -1 -3 5 5 8 -1 12 -14 12 -12 0 -18 5 -15 10 3 6 -3 10 -15 10
-11 0 -23 7 -26 15 -4 8 -9 13 -13 11 -4 -3 -25 11 -46 30 -21 19 -42 34 -47
34 -17 0 -247 239 -288 300 -24 36 -48 68 -53 71 -10 7 -30 41 -47 79 -6 14
-19 34 -28 44 -13 15 -13 17 -2 11 12 -7 12 -4 -1 11 -33 38 -131 306 -144
394 -1 8 -8 44 -14 80 -21 123 -11 474 16 540 3 8 7 25 9 38 8 62 79 260 120
335 8 15 12 27 9 27 -4 0 3 12 14 26 12 15 21 33 21 40 0 7 8 19 18 26 9 7 18
20 20 28 2 8 7 17 11 20 4 3 29 37 56 75 45 63 234 265 249 265 3 0 15 8 26
18 11 9 29 25 40 35 11 9 25 17 30 17 6 0 10 4 10 9 0 5 8 12 18 15 32 12 62
33 55 39 -6 7 12 10 21 5 2 -2 13 6 25 16 12 11 21 15 21 11 0 -5 7 0 16 11 8
10 12 12 8 4 -4 -8 4 -5 18 8 14 13 34 25 44 27 11 2 20 4 22 4 1 1 5 1 8 0 4
0 10 3 13 9 6 9 158 64 216 78 17 4 35 8 40 10 35 10 146 30 215 38 58 7 332
-4 380 -15z"/>
<path d="M2400 4070 c-606 -75 -1089 -466 -1280 -1039 -55 -162 -73 -284 -73
-471 0 -187 18 -309 73 -471 184 -551 640 -937 1215 -1030 116 -19 359 -16
480 5 191 33 405 118 570 224 349 224 598 602 671 1017 24 135 24 375 0 510
-83 474 -388 886 -815 1100 -119 59 -298 119 -421 139 -118 21 -321 28 -420
16z"/>
</g>
</svg>
