<?xml version="1.0" standalone="no"?>
<!DOCTYPE svg PUBLIC "-//W3C//DTD SVG 20010904//EN"
 "http://www.w3.org/TR/2001/REC-SVG-20010904/DTD/svg10.dtd">
<svg version="1.0" xmlns="http://www.w3.org/2000/svg"
 width="1024.000000pt" height="1024.000000pt" viewBox="0 0 1024.000000 1024.000000"
 preserveAspectRatio="xMidYMid meet">

<g transform="translate(0.000000,1024.000000) scale(0.100000,-0.100000)"
fill="#000000" stroke="none">
<path d="M7479 8585 c-49 -36 -83 -68 -399 -379 -287 -282 -409 -403 -1908
-1886 -453 -448 -834 -820 -845 -827 -64 -36 -117 -9 -270 136 -180 171 -573
531 -796 730 -108 96 -233 210 -278 253 -118 111 -159 132 -185 94 -4 -6 -8
-1139 -8 -2518 0 -2265 2 -2508 16 -2522 33 -34 25 -40 329 244 122 113 362
336 535 495 173 160 420 389 550 509 129 121 260 243 290 270 30 28 156 146
279 261 124 116 299 280 391 365 323 302 740 693 1290 1209 361 339 787 744
835 796 96 102 189 259 236 400 l23 70 3 1149 c3 853 1 1152 -8 1162 -17 20
-41 17 -80 -11z"/>
</g>
</svg>
